<svg width="16" height="21" viewBox="0 0 16 21" fill="none" xmlns="http://www.w3.org/2000/svg">
<g clip-path="url(#clip0_1_6033)">
<path d="M14.5735 20.6494C14.3965 20.65 14.2254 20.5856 14.0926 20.4685L8.05885 15.1034L2.02508 20.4685C1.92066 20.5613 1.79162 20.6219 1.65352 20.643C1.51541 20.6641 1.37415 20.6448 1.24678 20.5874C1.11941 20.53 1.01137 20.437 0.935697 20.3196C0.860024 20.2021 0.819951 20.0653 0.820315 19.9256V3.27695C0.821153 2.50929 1.12647 1.77332 1.66929 1.2305C2.2121 0.68769 2.94808 0.382369 3.71573 0.381531H12.402C13.1696 0.382369 13.9056 0.68769 14.4484 1.2305C14.9912 1.77332 15.2966 2.50929 15.2974 3.27695V19.9256C15.2974 20.1176 15.2211 20.3017 15.0854 20.4374C14.9496 20.5732 14.7655 20.6494 14.5735 20.6494Z" fill="#D6D6D6"/>
</g>
<defs>
<clipPath id="clip0_1_6033">
<rect width="14.4771" height="20.2698" fill="white" transform="translate(0.820312 0.381531)"/>
</clipPath>
</defs>
</svg>
