<svg width="13" height="11" viewBox="0 0 26 24" fill="none" xmlns="http://www.w3.org/2000/svg">
<path fill-rule="evenodd" clip-rule="evenodd" d="M22.1 24H3.9C2.43623 24 1.39648 23.3454 0.764258 22.4453C0.272949 21.7288 0.00634766 20.8758 0 20V4C0 2.93913 0.411328 1.92171 1.14258 1.17155C1.87383 0.421387 2.86533 0 3.9 0H16.9C17.9347 0 18.9262 0.421387 19.6574 1.17155C20.3887 1.92171 20.8 2.93913 20.8 4V10.6667H24.7C25.0453 10.6667 25.3754 10.8071 25.6191 11.0571C25.8629 11.3073 26 11.6463 26 12V20C26 20.0879 25.9962 20.1812 25.9898 20.2788C25.9759 20.467 25.9492 20.6711 25.9035 20.8841C25.7969 21.3874 25.5899 21.9398 25.2357 22.4453C24.6022 23.3467 23.5625 24 22.1 24ZM23.2819 14.11C23.2185 13.9678 23.1296 13.8368 23.0191 13.7238C22.7754 13.4738 22.4453 13.3333 22.1 13.3333C21.7547 13.3333 21.4246 13.4738 21.1809 13.7238C21.0641 13.8439 20.9714 13.9845 20.9066 14.1374C20.8368 14.3029 20.8 14.4827 20.8 14.6667V20C20.8 20.1891 20.8394 20.3742 20.913 20.5436C20.9777 20.6909 21.0679 20.8265 21.1809 20.9429C21.4246 21.1929 21.7547 21.3333 22.1 21.3333C22.232 21.3333 22.3628 21.3127 22.4872 21.2731C22.6865 21.2095 22.8693 21.097 23.0191 20.9429C23.1232 20.8364 23.207 20.714 23.2692 20.5812C23.3543 20.4017 23.4 20.2033 23.4 20V14.6667C23.4 14.4727 23.3594 14.283 23.2819 14.11ZM4.16025 7.33333C4.16025 6.7443 4.62617 6.2666 5.2 6.2666H15.6C16.1738 6.2666 16.6397 6.7443 16.6397 7.33333C16.6397 7.92236 16.1738 8.40007 15.6 8.40007H5.2C4.62617 8.40007 4.16025 7.92236 4.16025 7.33333ZM5.2 12.2666C4.62617 12.2666 4.16025 12.7443 4.16025 13.3333C4.16025 13.9224 4.62617 14.4001 5.2 14.4001H15.6C16.1738 14.4001 16.6397 13.9224 16.6397 13.3333C16.6397 12.7443 16.1738 12.2666 15.6 12.2666H5.2Z" fill="white"/>
</svg>
