<svg width="45" height="47" viewBox="0 0 25 25" fill="none" xmlns="http://www.w3.org/2000/svg">
<rect x="0.819336" y="0.726562" width="24" height="24" rx="6.61724" fill="#39EEA0"/>
<path d="M16.1452 13.275L16.1455 13.2747C16.3056 13.1086 16.525 13.0132 16.7568 13.0132C16.9885 13.0132 17.2078 13.1086 17.368 13.2746M16.1452 13.275L17.2682 13.6497M16.1452 13.275C16.0688 13.3544 16.0086 13.447 15.9667 13.547L15.9666 13.5474C15.9212 13.6561 15.8975 13.7736 15.8975 13.8932V16.2266C15.8975 16.35 15.9229 16.4708 15.9705 16.5816L15.971 16.5827C16.0126 16.6784 16.071 16.7675 16.145 16.8446L16.1455 16.845C16.3056 17.0112 16.525 17.1066 16.7568 17.1066C16.8452 17.1066 16.9324 17.0926 17.0151 17.0661L17.0155 17.0659C17.1485 17.023 17.2696 16.9474 17.3681 16.845M16.1452 13.275L17.3681 16.845M17.368 13.2746C17.4401 13.3492 17.4981 13.4358 17.5397 13.5299M17.368 13.2746C17.368 13.2747 17.3681 13.2747 17.3681 13.2747L17.1545 13.4807L17.3678 13.2744C17.3679 13.2745 17.3679 13.2746 17.368 13.2746ZM17.5397 13.5299L17.2682 13.6497M17.5397 13.5299C17.5396 13.5298 17.5396 13.5297 17.5395 13.5296L17.2682 13.6497M17.5397 13.5299C17.59 13.6437 17.616 13.7675 17.616 13.8932V16.2266C17.616 16.3595 17.5865 16.4892 17.5314 16.6068M17.2682 13.6497C17.3017 13.7254 17.3193 13.8083 17.3193 13.8932V16.2266C17.3193 16.3155 17.2995 16.4023 17.2627 16.4808M17.5314 16.6068C17.5316 16.6064 17.5318 16.606 17.5319 16.6056L17.2627 16.4808M17.5314 16.6068C17.4911 16.6935 17.4365 16.7743 17.3681 16.845M17.5314 16.6068L17.2627 16.4808M17.2627 16.4808L17.3681 16.845M17.8818 12.44C17.9488 12.44 18.0151 12.4674 18.0658 12.52C18.117 12.5731 18.1475 12.6472 18.1475 12.7266V16.2266C18.1475 16.2565 18.1463 16.2902 18.1438 16.3282C18.1386 16.3983 18.1288 16.4737 18.1122 16.5518L18.1121 16.5525C18.0726 16.7412 17.9965 16.9444 17.8698 17.1273C17.6487 17.4452 17.2881 17.6798 16.7568 17.6798H8.88177C8.35056 17.6798 7.99024 17.4452 7.76963 17.1285C7.59115 16.8647 7.49354 16.5498 7.49101 16.2255V9.22656C7.49101 8.8378 7.6402 8.46692 7.90229 8.19507C8.16395 7.92366 8.51635 7.7733 8.88177 7.7733H14.5068C14.8722 7.7733 15.2246 7.92366 15.4863 8.19507C15.7484 8.46692 15.8975 8.8378 15.8975 9.22656V12.1432V12.44H16.1943H17.8818ZM9.44427 9.92146C9.02199 9.92146 8.69765 10.2736 8.69765 10.6849C8.69765 11.0962 9.02199 11.4483 9.44427 11.4483H13.9443C14.3666 11.4483 14.6909 11.0962 14.6909 10.6849C14.6909 10.2736 14.3666 9.92146 13.9443 9.92146H9.44427ZM9.44427 12.5465C9.02199 12.5465 8.69765 12.8986 8.69765 13.3099C8.69765 13.7212 9.02199 14.0733 9.44427 14.0733H13.9443C14.3666 14.0733 14.6909 13.7212 14.6909 13.3099C14.6909 12.8986 14.3666 12.5465 13.9443 12.5465H9.44427Z" fill="#1F1F1F" stroke="#1F1F1F" stroke-width="0.593478"/>
</svg>
