<svg width="24" height="24" viewBox="0 0 24 24" fill="none" xmlns="http://www.w3.org/2000/svg">
<g clip-path="url(#clip0_1460_1745)">
<path fill-rule="evenodd" clip-rule="evenodd" d="M0.0839999 3.9096C-8.19564e-08 4.3512 0 4.8816 0 5.94V14.4C0 18.9252 -1.19209e-07 21.1884 1.4064 22.5936C2.8116 24 5.0748 24 9.6 24H14.4C18.9252 24 21.1884 24 22.5936 22.5936C24 21.1884 24 18.9252 24 14.4V11.7576C24 8.5992 24 7.0188 23.076 5.9928C22.9913 5.89809 22.9015 5.80797 22.8072 5.7228C21.7812 4.8 20.2008 4.8 17.0424 4.8H16.5936C15.21 4.8 14.5176 4.8 13.872 4.6164C13.5177 4.51513 13.1763 4.37339 12.8544 4.194C12.2688 3.8688 11.7792 3.378 10.8 2.4L10.14 1.74C9.8112 1.4112 9.648 1.248 9.4752 1.104C8.732 0.487967 7.82032 0.110333 6.8592 0.0204C6.636 -5.02914e-08 6.4032 0 5.94 0C4.8804 0 4.3512 -8.19564e-08 3.9096 0.0839999C2.96141 0.263069 2.0892 0.723764 1.40677 1.40598C0.724335 2.0882 0.263366 2.96146 0.0839999 3.9096ZM17.1396 1.2C17.5776 1.2 17.7972 1.2 17.982 1.224C19.2036 1.392 20.1756 2.3556 20.3988 3.6C20.2161 3.55863 20.0315 3.52619 19.8456 3.5028C19.0776 3.402 18.108 3.402 16.9056 3.402H16.5048C15.3744 3.402 14.9448 3.396 14.5548 3.2808C14.3278 3.21347 14.1095 3.11962 13.9044 3.0012C13.5492 2.7972 13.242 2.4876 12.4428 1.6596L12 1.2H17.1396ZM13.2 8.7C12.9613 8.7 12.7324 8.79482 12.5636 8.9636C12.3948 9.13239 12.3 9.36131 12.3 9.6C12.3 9.8387 12.3948 10.0676 12.5636 10.2364C12.7324 10.4052 12.9613 10.5 13.2 10.5H19.2C19.4387 10.5 19.6676 10.4052 19.8364 10.2364C20.0052 10.0676 20.1 9.8387 20.1 9.6C20.1 9.36131 20.0052 9.13239 19.8364 8.9636C19.6676 8.79482 19.4387 8.7 19.2 8.7H13.2Z" fill="white"/>
</g>
<defs>
<clipPath id="clip0_1460_1745">
<rect width="24" height="24" fill="white"/>
</clipPath>
</defs>
</svg>
