<svg width="45" height="45" viewBox="0 0 25 25" fill="none" xmlns="http://www.w3.org/2000/svg">
<rect x="0.156555" y="0.726562" width="24" height="24" rx="6.61724" fill="#39EEA0"/>
<path fill-rule="evenodd" clip-rule="evenodd" d="M7.02869 9.18701C6.99194 9.38021 6.99194 9.61226 6.99194 10.0753V13.7766C6.99194 15.7563 6.99194 16.7465 7.60724 17.3613C8.22202 17.9766 9.21217 17.9766 11.1919 17.9766H13.2919C15.2717 17.9766 16.2619 17.9766 16.8766 17.3613C17.4919 16.7465 17.4919 15.7563 17.4919 13.7766V12.6205C17.4919 11.2387 17.4919 10.5473 17.0877 10.0984C17.0506 10.057 17.0114 10.0175 16.9701 9.98029C16.5212 9.57656 15.8298 9.57656 14.448 9.57656H14.2516C13.6463 9.57656 13.3434 9.57656 13.0609 9.49624C12.9059 9.45193 12.7566 9.38992 12.6157 9.31144C12.3595 9.16916 12.1453 8.95444 11.7169 8.52656L11.4282 8.23781C11.2843 8.09396 11.2129 8.02256 11.1373 7.95956C10.8122 7.69005 10.4133 7.52483 9.99284 7.48549C9.89519 7.47656 9.79334 7.47656 9.59069 7.47656C9.12712 7.47656 8.89559 7.47656 8.70239 7.51331C8.28756 7.59165 7.90597 7.79321 7.6074 8.09168C7.30884 8.39015 7.10717 8.7722 7.02869 9.18701ZM14.4905 8.00156C14.6821 8.00156 14.7782 8.00156 14.8591 8.01206C15.3935 8.08556 15.8188 8.50714 15.9164 9.05156C15.8365 9.03346 15.7557 9.01927 15.6744 9.00904C15.3384 8.96494 14.9142 8.96494 14.3881 8.96494H14.2128C13.7182 8.96494 13.5303 8.96231 13.3597 8.91191C13.2603 8.88246 13.1648 8.8414 13.0751 8.78959C12.9197 8.70034 12.7853 8.56489 12.4357 8.20264L12.2419 8.00156H14.4905ZM12.7669 11.2828C12.6625 11.2828 12.5624 11.3243 12.4885 11.3981C12.4147 11.472 12.3732 11.5721 12.3732 11.6766C12.3732 11.781 12.4147 11.8811 12.4885 11.955C12.5624 12.0288 12.6625 12.0703 12.7669 12.0703H15.3919C15.4964 12.0703 15.5965 12.0288 15.6704 11.955C15.7442 11.8811 15.7857 11.781 15.7857 11.6766C15.7857 11.5721 15.7442 11.472 15.6704 11.3981C15.5965 11.3243 15.4964 11.2828 15.3919 11.2828H12.7669Z" fill="#1F1F1F"/>
</svg>
