<svg width="24" height="21" viewBox="0 0 24 21" fill="none" xmlns="http://www.w3.org/2000/svg">
<path d="M0.729129 12.9788C0.922506 12.9788 1.10796 13.0556 1.2447 13.1923C1.38144 13.3291 1.45826 13.5145 1.45826 13.7079V17.3535C1.45826 17.7403 1.6119 18.1112 1.88537 18.3847C2.15885 18.6582 2.52976 18.8118 2.91652 18.8118H20.4156C20.8024 18.8118 21.1733 18.6582 21.4468 18.3847C21.7202 18.1112 21.8739 17.7403 21.8739 17.3535V13.7079C21.8739 13.5145 21.9507 13.3291 22.0874 13.1923C22.2242 13.0556 22.4096 12.9788 22.603 12.9788C22.7964 12.9788 22.9818 13.0556 23.1186 13.1923C23.2553 13.3291 23.3321 13.5145 23.3321 13.7079V17.3535C23.3321 18.127 23.0249 18.8689 22.4779 19.4158C21.931 19.9628 21.1891 20.2701 20.4156 20.2701H2.91652C2.14301 20.2701 1.40118 19.9628 0.854228 19.4158C0.307275 18.8689 0 18.127 0 17.3535V13.7079C0 13.5145 0.0768188 13.3291 0.213557 13.1923C0.350295 13.0556 0.535752 12.9788 0.729129 12.9788Z" fill="#B5B5B5"/>
<path d="M11.1511 15.8279C11.2188 15.8958 11.2993 15.9497 11.3879 15.9865C11.4765 16.0232 11.5714 16.0421 11.6673 16.0421C11.7632 16.0421 11.8582 16.0232 11.9468 15.9865C12.0354 15.9497 12.1158 15.8958 12.1835 15.8279L16.5583 11.4532C16.6952 11.3163 16.7722 11.1306 16.7722 10.9369C16.7722 10.7433 16.6952 10.5576 16.5583 10.4207C16.4214 10.2838 16.2357 10.2069 16.0421 10.2069C15.8485 10.2069 15.6628 10.2838 15.5259 10.4207L12.3965 13.5516V0.729129C12.3965 0.535752 12.3196 0.350295 12.1829 0.213557C12.0462 0.0768187 11.8607 0 11.6673 0C11.4739 0 11.2885 0.0768187 11.1518 0.213557C11.015 0.350295 10.9382 0.535752 10.9382 0.729129V13.5516L7.80877 10.4207C7.67186 10.2838 7.48617 10.2069 7.29255 10.2069C7.09893 10.2069 6.91324 10.2838 6.77633 10.4207C6.63942 10.5576 6.5625 10.7433 6.5625 10.9369C6.5625 11.1306 6.63942 11.3163 6.77633 11.4532L11.1511 15.8279Z" fill="#B5B5B5"/>
</svg>
