<svg  viewBox="0 0 28 28" ill="none" xmlns="http://www.w3.org/2000/svg">
<path fill-rule="evenodd" clip-rule="evenodd" d="M15.509 26.2164H10.4217C5.62564 26.2164 3.22697 26.2164 1.73766 24.6893C0.24707 23.1634 0.24707 20.7058 0.24707 15.792V10.5797C0.24707 5.66591 0.24707 3.20834 1.73766 1.68246C3.22697 0.155273 5.63836 0.155273 10.4599 0.155273C11.2306 0.155273 11.8474 0.155273 12.3676 0.177425C12.3511 0.28167 12.3422 0.387218 12.3422 0.495372L12.3295 4.18824C12.3295 5.61769 12.3295 6.88166 12.463 7.89935C12.608 9.00304 12.9399 10.1067 13.82 11.0084C14.6976 11.9076 15.7761 12.249 16.8534 12.3975C17.8467 12.5343 19.0803 12.5343 20.4755 12.5343H25.629C25.6837 13.2302 25.6837 14.085 25.6837 15.2225V15.792C25.6837 20.7058 25.6837 23.1634 24.1931 24.6893C22.7038 26.2164 20.3051 26.2164 15.509 26.2164Z" fill="#82822E"/>
<path d="M12.3457 0.494389L12.333 4.18856C12.333 5.61801 12.333 6.88068 12.4665 7.89967C12.6115 9.00336 12.9435 10.107 13.8236 11.0075C14.7012 11.9079 15.7797 12.2493 16.8569 12.3978C17.8502 12.5346 19.0839 12.5346 20.4791 12.5346H25.6325C25.6491 12.7366 25.6605 12.9529 25.6681 13.1862H25.6872C25.6872 12.837 25.6872 12.6623 25.6745 12.4565C25.5766 11.2182 25.1558 10.0297 24.4561 9.01509C24.3365 8.84829 24.2551 8.74926 24.0936 8.5499C23.0851 7.3146 21.7573 5.77438 20.5999 4.7163C19.5697 3.77288 18.1567 2.74216 16.9243 1.90039C15.8662 1.17589 15.3371 0.813638 14.6109 0.545208C14.3996 0.46776 14.1848 0.400792 13.9673 0.344537C13.4789 0.220747 13.0033 0.177746 12.333 0.162109L12.3457 0.494389Z" fill="#1A1A1A"/>
<path d="M8.57738 21.0215H7.01442V20.2008H8.57738C8.84955 20.2008 9.0695 20.1568 9.2372 20.0688C9.40491 19.9809 9.52725 19.8599 9.60423 19.7059C9.68396 19.5492 9.72382 19.3705 9.72382 19.1698C9.72382 18.9801 9.68396 18.8028 9.60423 18.6379C9.52725 18.4701 9.40491 18.3354 9.2372 18.2337C9.0695 18.132 8.84955 18.0811 8.57738 18.0811H7.33196V23.2607H6.29686V17.2563H8.57738C9.042 17.2563 9.43652 17.3388 9.76094 17.5038C10.0881 17.666 10.3369 17.8914 10.5074 18.1801C10.6778 18.466 10.763 18.7932 10.763 19.1616C10.763 19.5492 10.6778 19.8819 10.5074 20.1596C10.3369 20.4372 10.0881 20.6503 9.76094 20.7988C9.43652 20.9472 9.042 21.0215 8.57738 21.0215ZM13.9714 21.0215H12.4085V20.2008H13.9714C14.2436 20.2008 14.4636 20.1568 14.6313 20.0688C14.799 19.9809 14.9213 19.8599 14.9983 19.7059C15.078 19.5492 15.1179 19.3705 15.1179 19.1698C15.1179 18.9801 15.078 18.8028 14.9983 18.6379C14.9213 18.4701 14.799 18.3354 14.6313 18.2337C14.4636 18.132 14.2436 18.0811 13.9714 18.0811H12.726V23.2607H11.6909V17.2563H13.9714C14.4361 17.2563 14.8306 17.3388 15.155 17.5038C15.4822 17.666 15.731 17.8914 15.9014 18.1801C16.0719 18.466 16.1571 18.7932 16.1571 19.1616C16.1571 19.5492 16.0719 19.8819 15.9014 20.1596C15.731 20.4372 15.4822 20.6503 15.155 20.7988C14.8306 20.9472 14.4361 21.0215 13.9714 21.0215ZM19.5552 17.2563V23.2607H18.5283V17.2563H19.5552ZM21.4398 17.2563V18.0811H16.6602V17.2563H21.4398Z" fill="#1F1F1F"/>
</svg>
