<svg width="23" height="24" viewBox="0 0 23 24" fill="none" xmlns="http://www.w3.org/2000/svg">
<path fill-rule="evenodd" clip-rule="evenodd" d="M11.4917 0.6875C8.49259 0.6875 5.61633 1.87888 3.49566 3.99956C1.37498 6.12024 0.183594 8.9965 0.183594 11.9956C0.183594 14.9947 1.37498 17.8709 3.49566 19.9916C5.61633 22.1123 8.49259 23.3037 11.4917 23.3037H17.1457C18.9022 23.3037 19.7805 23.3037 20.4728 23.0172C20.9303 22.8278 21.3459 22.5501 21.696 22.2C22.0462 21.8498 22.3239 21.4342 22.5133 20.9767C22.7998 20.2844 22.7998 19.4062 22.7998 17.6496V11.9956C22.7998 8.9965 21.6084 6.12024 19.4877 3.99956C17.367 1.87888 14.4908 0.6875 11.4917 0.6875ZM6.46586 10.7391C6.46586 10.4059 6.59824 10.0863 6.83387 9.85069C7.0695 9.61506 7.38909 9.48268 7.72232 9.48268H15.261C15.5943 9.48268 15.9139 9.61506 16.1495 9.85069C16.3851 10.0863 16.5175 10.4059 16.5175 10.7391C16.5175 11.0724 16.3851 11.3919 16.1495 11.6276C15.9139 11.8632 15.5943 11.9956 15.261 11.9956H7.72232C7.38909 11.9956 7.0695 11.8632 6.83387 11.6276C6.59824 11.3919 6.46586 11.0724 6.46586 10.7391ZM10.2352 15.7649C10.2352 15.4317 10.3676 15.1121 10.6032 14.8765C10.8389 14.6409 11.1584 14.5085 11.4917 14.5085H15.261C15.5943 14.5085 15.9139 14.6409 16.1495 14.8765C16.3851 15.1121 16.5175 15.4317 16.5175 15.7649C16.5175 16.0982 16.3851 16.4178 16.1495 16.6534C15.9139 16.889 15.5943 17.0214 15.261 17.0214H11.4917C11.1584 17.0214 10.8389 16.889 10.6032 16.6534C10.3676 16.4178 10.2352 16.0982 10.2352 15.7649Z" fill="#0FA966"/>
</svg>
