<svg width="30" height="31" viewBox="0 0 30 31" fill="none" xmlns="http://www.w3.org/2000/svg">
<path id="Vector" fill-rule="evenodd" clip-rule="evenodd" d="M17.9628 30.4115H12.0276C6.43222 30.4115 3.63377 30.4115 1.89624 28.6298C0.157226 26.8496 0.157227 23.9825 0.157227 18.2497V12.1687C0.157227 6.43591 0.157226 3.56875 1.89624 1.78855C3.63377 0.00683576 6.44706 0.00683594 12.0722 0.00683594C12.9713 0.00683594 13.691 0.00683588 14.2979 0.0326799C14.2786 0.154299 14.2682 0.277438 14.2682 0.403617L14.2533 4.71196C14.2533 6.37966 14.2533 7.85429 14.4091 9.04159C14.5783 10.3292 14.9656 11.6169 15.9924 12.6689C17.0162 13.7178 18.2744 14.1161 19.5312 14.2894C20.6901 14.4491 22.1294 14.4491 23.7571 14.4491H29.7695C29.8333 15.2609 29.8333 16.2581 29.8333 17.5853V18.2497C29.8333 23.9825 29.8333 26.8496 28.0942 28.6298C26.3567 30.4115 23.5583 30.4115 17.9628 30.4115Z" fill="#82822E"/>
</svg>
